<?xml version="1.0" encoding="UTF-8"?>
<svg width="1031px" height="325px" viewBox="0 0 1031 325" version="1.1" xmlns="http://www.w3.org/2000/svg" xmlns:xlink="http://www.w3.org/1999/xlink">
    <!-- Generator: Sketch 53 (72520) - https://sketchapp.com -->
    <title>kyso.io dark3</title>
    <desc>Created with Sketch.</desc>
    <g id="Page-1" stroke="none" stroke-width="1" fill="none" fill-rule="evenodd">
        <g id="kyso.io-dark3" transform="translate(11.000000, 11.000000)">
            <path d="M0,79 C0,57.4758 0.0234,42.4393 1.5494,31.0885 C3.033,20.0541 5.7527,14.164 9.9584,9.9584 C14.164,5.7527 20.0541,3.033 31.0885,1.5494 C42.4393,0.0234 57.4758,0 79,0 L199,0 C220.524,0 235.561,0.0234 246.911,1.5494 C257.946,3.033 263.836,5.7527 268.042,9.9584 C272.247,14.164 274.967,20.0541 276.451,31.0885 C277.977,42.4393 278,57.4758 278,79 L278,199 C278,220.524 277.977,235.561 276.451,246.911 C274.967,257.946 272.247,263.836 268.042,268.042 C263.836,272.247 257.946,274.967 246.911,276.451 C235.561,277.977 220.524,278 199,278 L79,278 C57.4758,278 42.4393,277.977 31.0885,276.451 C20.0541,274.967 14.164,272.247 9.9584,268.042 C5.7527,263.836 3.033,257.946 1.5494,246.911 C0.0234,235.561 0,220.524 0,199 L0,79 Z" id="Path" stroke="#0C0C0C" stroke-width="22"></path>
            <rect id="Rectangle" fill="#0C0C0C" fill-rule="nonzero" x="22" y="112.785" width="40" height="113" rx="10"></rect>
            <rect id="Rectangle" fill="#0C0C0C" fill-rule="nonzero" transform="translate(139.000000, 243.000000) rotate(90.000000) translate(-139.000000, -243.000000) " x="129" y="127" width="20" height="232" rx="10"></rect>
            <rect id="Rectangle" fill="#0C0C0C" fill-rule="nonzero" x="69" y="45.7852" width="40" height="180" rx="10"></rect>
            <rect id="Rectangle" fill="#0C0C0C" fill-rule="nonzero" x="116" y="81.7852" width="40" height="144" rx="10"></rect>
            <rect id="Rectangle" fill="#0C0C0C" fill-rule="nonzero" transform="translate(185.393962, 191.578213) rotate(-19.158100) translate(-185.393962, -191.578213) " x="165.393962" y="159.578213" width="40" height="64" rx="10"></rect>
            <rect id="Rectangle" fill="#0C0C0C" fill-rule="nonzero" x="215" y="140.785" width="40" height="85" rx="10"></rect>
            <polygon id="Path" fill="#0C0C0C" fill-rule="nonzero" points="494.7 245 449.1 176.9 427.5 198.2 427.5 245 387.3 245 387.3 26 427.5 26 427.5 158.9 490.5 88.1 533.4 88.1 474.9 154.7 537.6 245"></polygon>
            <path d="M557.885,275.6 C561.285,276.6 564.585,277.3 567.785,277.7 C570.985,278.3 573.685,278.6 575.885,278.6 C578.485,278.6 580.885,278.1 583.085,277.1 C585.285,276.1 587.285,274.3 589.085,271.7 C590.885,269.3 592.685,265.9 594.485,261.5 C596.285,257.1 598.185,251.6 600.185,245 L538.085,87.8 L579.485,87.8 L622.085,210.2 L659.885,87.8 L697.685,87.8 L631.685,276.2 C627.885,287.2 621.385,296.2 612.185,303.2 C602.985,310.2 591.585,313.7 577.985,313.7 C574.785,313.7 571.485,313.4 568.085,312.8 C564.885,312.4 561.485,311.6 557.885,310.4 L557.885,275.6 Z" id="Path" fill="#0C0C0C" fill-rule="nonzero"></path>
            <path d="M775.411,248 C762.211,248 749.311,245.9 736.711,241.7 C724.111,237.5 713.311,231.5 704.311,223.7 L719.311,198.5 C728.911,205.3 738.211,210.5 747.211,214.1 C756.411,217.5 765.511,219.2 774.511,219.2 C782.511,219.2 788.811,217.7 793.411,214.7 C798.011,211.7 800.311,207.4 800.311,201.8 C800.311,196.2 797.611,192.1 792.211,189.5 C786.811,186.9 778.011,183.9 765.811,180.5 C755.611,177.7 746.911,175 739.711,172.4 C732.511,169.8 726.711,166.9 722.311,163.7 C717.911,160.3 714.711,156.5 712.711,152.3 C710.711,147.9 709.711,142.7 709.711,136.7 C709.711,128.7 711.211,121.5 714.211,115.1 C717.411,108.7 721.811,103.3 727.411,98.9 C733.011,94.3 739.511,90.8 746.911,88.4 C754.511,86 762.711,84.8 771.511,84.8 C783.311,84.8 794.311,86.5 804.511,89.9 C814.911,93.3 824.411,98.8 833.011,106.4 L816.811,130.7 C808.811,124.7 801.011,120.3 793.411,117.5 C786.011,114.7 778.611,113.3 771.211,113.3 C764.411,113.3 758.711,114.7 754.111,117.5 C749.511,120.3 747.211,124.8 747.211,131 C747.211,133.8 747.711,136.1 748.711,137.9 C749.911,139.7 751.711,141.3 754.111,142.7 C756.511,144.1 759.611,145.5 763.411,146.9 C767.411,148.1 772.311,149.4 778.111,150.8 C788.911,153.6 798.111,156.4 805.711,159.2 C813.511,162 819.811,165.2 824.611,168.8 C829.611,172.4 833.211,176.6 835.411,181.4 C837.811,186 839.011,191.6 839.011,198.2 C839.011,213.6 833.311,225.8 821.911,234.8 C810.511,243.6 795.011,248 775.411,248 Z" id="Path" fill="#0C0C0C" fill-rule="nonzero"></path>
            <path d="M937.732,248 C924.932,248 913.432,245.8 903.232,241.4 C893.032,237 884.332,231.1 877.132,223.7 C870.132,216.1 864.732,207.4 860.932,197.6 C857.132,187.8 855.232,177.5 855.232,166.7 C855.232,155.7 857.132,145.3 860.932,135.5 C864.732,125.7 870.132,117.1 877.132,109.7 C884.332,102.1 893.032,96.1 903.232,91.7 C913.432,87.3 924.932,85.1 937.732,85.1 C950.532,85.1 961.932,87.3 971.932,91.7 C982.132,96.1 990.73,102.1 997.73,109.7 C1004.93,117.1 1010.43,125.7 1014.23,135.5 C1018.03,145.3 1019.93,155.7 1019.93,166.7 C1019.93,177.5 1018.03,187.8 1014.23,197.6 C1010.43,207.4 1005.03,216.1 998.03,223.7 C991.03,231.1 982.432,237 972.232,241.4 C962.032,245.8 950.532,248 937.732,248 Z M896.632,166.7 C896.632,173.7 897.632,180.1 899.632,185.9 C901.832,191.5 904.732,196.4 908.332,200.6 C912.132,204.8 916.532,208.1 921.532,210.5 C926.532,212.7 931.932,213.8 937.732,213.8 C943.532,213.8 948.932,212.7 953.932,210.5 C958.932,208.1 963.232,204.8 966.832,200.6 C970.632,196.4 973.532,191.4 975.532,185.6 C977.732,179.8 978.832,173.4 978.832,166.4 C978.832,159.6 977.732,153.3 975.532,147.5 C973.532,141.7 970.632,136.7 966.832,132.5 C963.232,128.3 958.932,125.1 953.932,122.9 C948.932,120.5 943.532,119.3 937.732,119.3 C931.932,119.3 926.532,120.5 921.532,122.9 C916.532,125.3 912.132,128.6 908.332,132.8 C904.732,137 901.832,142 899.632,147.8 C897.632,153.6 896.632,159.9 896.632,166.7 Z" id="Shape" fill="#0C0C0C" fill-rule="nonzero"></path>
        </g>
    </g>
</svg>